#!OML:ASF H:\Dans Jumps\Project 1\Capture day 1\Session 1\subject.ASF
:FULLY-SPECIFIED
:DEGREES
556
root 0.824892 17.7339 6.41886 4.84715 0.279031 -1.92497
lowerback -2.03229 -0.561702 0.00581946
upperback 1.47592 -0.794382 1.80761
thorax 2.68022 -0.414211 1.81921
lowerneck -13.1552 -1.11562 -2.46797
upperneck 18.6515 -1.16716 0.800761
head 7.95705 -0.650624 0.550395
rclavicle 1.16538e-014 5.1684e-015
rhumerus -25.1787 -20.9066 -80.2514
rradius 21.3833
rwrist 38.0556
rhand -19.9003 -27.1906
rfingers 7.12502
rthumb 6.43602 -57.0728
lclavicle 1.16538e-014 5.1684e-015
lhumerus -21.006 11.1594 86.2784
lradius 12.0933
lwrist -8.7335
lhand -25.9065 -6.25578
lfingers 7.12502
lthumb 0.636035 23.723
rfemur -13.0464 -1.66438 19.9612
rtibia 19.606
rfoot -10.6225 0.309266
rtoes 17.8495
lfemur -11.329 6.93412 -17.6258
ltibia 18.2869
lfoot -9.61192 2.87397
ltoes -2.80342
557
root 0.825761 17.7335 6.41652 4.83615 0.24977 -1.9314
lowerback -2.01986 -0.563762 0.0139442
upperback 1.46973 -0.797278 1.81222
thorax 2.6669 -0.415478 1.81939
lowerneck -13.1417 -1.11572 -2.46537
upperneck 18.6428 -1.16522 0.785945
head 7.9516 -0.650991 0.545315
rclavicle -4.62174e-015 -7.7526e-015
rhumerus -25.1636 -20.922 -80.2469
rradius 21.375
rwrist 38.0727
rhand -19.8923 -27.2009
rfingers 7.12502
rthumb 6.44374 -57.0829
lclavicle -4.62174e-015 -7.7526e-015
lhumerus -20.9443 11.0208 86.3515
lradius 12.1334
lwrist -8.62728
lhand -25.9747 -6.42767
lfingers 7.12502
lthumb 0.570191 23.5513
rfemur -13.0484 -1.64111 19.9653
rtibia 19.6085
rfoot -10.6172 0.310502
rtoes 17.8369
lfemur -11.331 6.95046 -17.6212
ltibia 18.304
lfoot -9.61739 2.88723
ltoes -2.83266
558
root 0.826609 17.7331 6.4142 4.82663 0.217667 -1.93901
lowerback -2.00934 -0.564486 0.0229745
upperback 1.46346 -0.798429 1.81662
thorax 2.6545 -0.41586 1.81891
lowerneck -13.1242 -1.11612 -2.46669
upperneck 18.6323 -1.16355 0.774132
head 7.94491 -0.651473 0.541866
rclavicle -8.24956e-015 1.78906e-014
rhumerus -25.143 -20.9342 -80.2472
rradius 21.3671
rwrist 38.0836
rhand -19.8844 -27.2074
rfingers 7.12502
rthumb 6.45138 -57.0892
lclavicle -8.24956e-015 1.78906e-014
lhumerus -20.8852 10.8478 86.4377
lradius 12.1983
lwrist -8.4639
lhand -26.0182 -6.54294
lfingers 7.12502
lthumb 0.528126 23.4361
rfemur -13.0526 -1.61476 19.9708
rtibia 19.611
rfoot -10.6116 0.310835
rtoes 17.8152
lfemur -11.335 6.96571 -17.615
ltibia 18.3231
lfoot -9.62442 2.90396
ltoes -2.85069
559
root 0.827428 17.7327 6.41192 4.8172 0.18294 -1.9497
lowerback -2.00087 -0.564515 0.0344246
upperback 1.45879 -0.798794 1.82181
thorax 2.64485 -0.41583 1.81789
lowerneck -13.1067 -1.11646 -2.47599
upperneck 18.6212 -1.16147 0.769148
head 7.93808 -0.651644 0.542049
rclavicle 7.7526e-015 -1.96797e-014
rhumerus -25.1141 -20.9425 -80.2532
rradius 21.3603
rwrist 38.0887
rhand -19.8797 -27.2064
rfingers 7.12502
rthumb 6.45591 -57.088
lclavicle 7.7526e-015 -1.96797e-014
lhumerus -20.821 10.6469 86.5338
lradius 12.271
lwrist -8.26086
lhand -26.0491 -6.63094
lfingers 7.12502
lthumb 0.498349 23.3482
rfemur -13.0567 -1.58659 19.9798
rtibia 19.6129
rfoot -10.6036 0.311908
rtoes 17.7968
lfemur -11.339 6.97979 -17.605
ltibia 18.3447
lfoot -9.63391 2.92424
ltoes -2.85395
560
root 0.828161 17.7322 6.40958 4.80879 0.145458 -1.96131
lowerback -1.99476 -0.563572 0.0444394
upperback 1.45468 -0.797868 1.82774
thorax 2.6371 -0.415201 1.81848
lowerneck -13.0944 -1.11514 -2.48677
upperneck 18.6155 -1.15704 0.765895
head 7.93396 -0.650642 0.543279
rclavicle -5.46658e-016 -7.95139e-016
rhumerus -25.0801 -20.9403 -80.2659
rradius 21.3577
rwrist 38.0781
rhand -19.8753 -27.2011
rfingers 7.12502
rthumb 6.46016 -57.0826
lclavicle -5.46658e-016 -7.95139e-016
lhumerus -20.7522 10.4253 86.6376
lradius 12.3456
lwrist -8.02809
lhand -26.066 -6.69393
lfingers 7.12502
lthumb 0.482031 23.2853
rfemur -13.0634 -1.55396 19.9899
rtibia 19.6161
rfoot -10.5921 0.312927
rtoes 17.7982
lfemur -11.3445 6.99346 -17.5936
ltibia 18.3672
lfoot -9.64126 2.94704
ltoes -2.84751
561
root 0.828967 17.7318 6.40731 4.79971 0.107228 -1.9741
lowerback -1.9904 -0.561827 0.0564849
upperback 1.4521 -0.795961 1.83298
thorax 2.63185 -0.414053 1.81724
lowerneck -13.0851 -1.11155 -2.49698
upperneck 18.6125 -1.15008 0.765433
head 7.93128 -0.648132 0.545596
rclavicle -5.889e-015 -1.92821e-014
rhumerus -25.0439 -20.9246 -80.2874
rradius 21.3646
rwrist 38.0504
rhand -19.8759 -27.1907
rfingers 7.12502
rthumb 6.45961 -57.0722
lclavicle -5.889e-015 -1.92821e-014
lhumerus -20.6801 10.2047 86.7415
lradius 12.4199
lwrist -7.7991
lhand -26.0801 -6.74859
lfingers 7.12502
lthumb 0.468374 23.2306
rfemur -13.0703 -1.52434 20.0008
rtibia 19.6214
rfoot -10.5807 0.319481
rtoes 17.8115
lfemur -11.3484 7.0062 -17.581
ltibia 18.3894
lfoot -9.64578 2.97113
ltoes -2.8362
562
root 0.829767 17.7314 6.40503 4.79001 0.0681895 -1.98181
lowerback -1.98626 -0.559392 0.0626667
upperback 1.44948 -0.792908 1.83661
thorax 2.62669 -0.412426 1.81768
lowerneck -13.0748 -1.1079 -2.50428
upperneck 18.6108 -1.14319 0.762512
head 7.92879 -0.6457 0.546614
rclavicle 7.7526e-015 -1.39149e-015
rhumerus -25.0082 -20.893 -80.3165
rradius 21.3804
rwrist 38.0067
rhand -19.8808 -27.181
rfingers 7.12502
rthumb 6.4549 -57.0626
lclavicle 7.7526e-015 -1.39149e-015
lhumerus -20.6068 9.9887 86.845
lradius 12.4923
lwrist -7.57641
lhand -26.092 -6.78669
lfingers 7.12502
lthumb 0.456867 23.1926
rfemur -13.0786 -1.49626 20.0059
rtibia 19.6309
rfoot -10.5695 0.329648
rtoes 17.8373
lfemur -11.3499 7.01607 -17.5741
ltibia 18.409
lfoot -9.64664 2.99772
ltoes -2.81991
563
root 0.830709 17.7309 6.40291 4.78043 0.0303757 -1.98611
lowerback -1.98555 -0.55667 0.0671095
upperback 1.4481 -0.789431 1.8383
thorax 2.62473 -0.410615 1.81709
lowerneck -13.0661 -1.10465 -2.50866
upperneck 18.6114 -1.13718 0.758246
head 7.92732 -0.643617 0.546602
rclavicle 4.47266e-016 -3.37934e-015
rhumerus -24.9712 -20.8439 -80.3542
rradius 21.4047
rwrist 37.9469
rhand -19.8912 -27.1681
rfingers 7.12502
rthumb 6.44484 -57.0501
lclavicle 4.47266e-016 -3.37934e-015
lhumerus -20.534 9.78107 86.9472
lradius 12.5689
lwrist -7.3643
lhand -26.0899 -6.78806
lfingers 7.12502
lthumb 0.458905 23.1912
rfemur -13.088 -1.47745 20.0067
rtibia 19.6447
rfoot -10.562 0.348026
rtoes 17.8586
lfemur -11.3487 7.02292 -17.5718
ltibia 18.4247
lfoot -9.64448 3.02615
ltoes -2.81476
564
root 0.831693 17.7304 6.40085 4.77106 -0.00745273 -1.98481
lowerback -1.98375 -0.554089 0.0649421
upperback 1.44501 -0.785864 1.83884
thorax 2.62045 -0.408855 1.81903
lowerneck -13.0627 -1.09904 -2.50901
upperneck 18.619 -1.12808 0.751156
head 7.92906 -0.640082 0.545294
rclavicle -2.68359e-015 1.2921e-014
rhumerus -24.9374 -20.7771 -80.3973
rradius 21.4381
rwrist 37.8766
rhand -19.9084 -27.1537
rfingers 7.12502
rthumb 6.42822 -57.0361
lclavicle -2.68359e-015 1.2921e-014
lhumerus -20.4652 9.58282 87.0475
lradius 12.6463
lwrist -7.1636
lhand -26.0827 -6.77578
lfingers 7.12502
lthumb 0.465908 23.2035
rfemur -13.0995 -1.46357 20.0012
rtibia 19.6628
rfoot -10.5596 0.371739
rtoes 17.877
lfemur -11.3453 7.02729 -17.576
ltibia 18.4363
lfoot -9.6402 3.05564
ltoes -2.81098
565
root 0.832704 17.73 6.39891 4.76256 -0.0439446 -1.98042
lowerback -1.98291 -0.551664 0.0597265
upperback 1.44133 -0.782374 1.83787
thorax 2.61613 -0.40717 1.82113
lowerneck -13.0641 -1.09385 -2.50061
upperneck 18.63 -1.1197 0.736177
head 7.93269 -0.637049 0.539829
rclavicle 1.33434e-014 -1.31198e-014
rhumerus -24.9028 -20.6965 -80.4471
rradius 21.477
rwrist 37.7963
rhand -19.9275 -27.1392
rfingers 7.12502
rthumb 6.40978 -57.0223
lclavicle 1.33434e-014 -1.31198e-014
lhumerus -20.3969 9.37194 87.1504
lradius 12.7236
lwrist -6.95437
lhand -26.07 -6.73118
lfingers 7.12502
lthumb 0.478123 23.248
rfemur -13.1125 -1.45501 19.9924
rtibia 19.6831
rfoot -10.5601 0.397646
rtoes 17.8813
lfemur -11.3406 7.03035 -17.584
ltibia 18.4441
lfoot -9.63539 3.08438
ltoes -2.81276
566
root 0.833714 17.7296 6.39699 4.75463 -0.077269 -1.97481
lowerback -1.9801 -0.550868 0.0523676
upperback 1.43632 -0.780943 1.83668
thorax 2.60943 -0.406536 1.82415
lowerneck -13.0785 -1.08612 -2.48765
upperneck 18.6527 -1.10805 0.719089
head 7.94244 -0.632379 0.533208
rclavicle -1.84621e-014 1.35174e-014
rhumerus -24.869 -20.5982 -80.504
rradius 21.5246
rwrist 37.703
rhand -19.9441 -27.1277
rfingers 7.12502
rthumb 6.39379 -57.0112
lclavicle -1.84621e-014 1.35174e-014
lhumerus -20.3303 9.15578 87.2541
lradius 12.8022
lwrist -6.72517
lhand -26.0508 -6.68307
lfingers 7.12502
lthumb 0.496669 23.2961
rfemur -13.1266 -1.44923 19.9825
rtibia 19.7047
rfoot -10.5627 0.421977
rtoes 17.8724
lfemur -11.3354 7.03064 -17.5934
ltibia 18.4497
lfoot -9.63009 3.11231
ltoes -2.81107
567
root 0.834727 17.7293 6.3952 4.74714 -0.109854 -1.96655
lowerback -1.97848 -0.550181 0.0424943
upperback 1.43186 -0.779556 1.83366
thorax 2.60398 -0.405957 1.82666
lowerneck -13.1047 -1.07757 -2.46697
upperneck 18.6824 -1.09578 0.697899
head 7.95656 -0.627285 0.523964
rclavicle 1.14301e-014 -1.82882e-014
rhumerus -24.8331 -20.4874 -80.5687
rradius 21.5805
rwrist 37.5968
rhand -19.9515 -27.1246
rfingers 7.12502
rthumb 6.38667 -57.0083
lclavicle 1.14301e-014 -1.82882e-014
lhumerus -20.2586 8.9314 87.3591
lradius 12.8788
lwrist -6.46912
lhand -26.0211 -6.59057
lfingers 7.12502
lthumb 0.525368 23.3885
rfemur -13.1408 -1.4457 19.9698
rtibia 19.7264
rfoot -10.5657 0.447293
rtoes 17.8618
lfemur -11.3291 7.03212 -17.6058
ltibia 18.4535
lfoot -9.62686 3.13824
ltoes -2.80761
568
root 0.835654 17.729 6.39336 4.73965 -0.140363 -1.95807
lowerback -1.97552 -0.550366 0.0305744
upperback 1.42699 -0.779245 1.83042
thorax 2.5974 -0.405944 1.83007
lowerneck -13.1308 -1.06922 -2.44562
upperneck 18.7128 -1.08433 0.678584
head 7.97093 -0.62236 0.515142
rclavicle 2.41026e-015 -8.34896e-015
rhumerus -24.7972 -20.3651 -80.6393
rradius 21.6434
rwrist 37.4788
rhand -19.945 -27.1368
rfingers 7.12502
rthumb 6.39286 -57.0204
lclavicle 2.41026e-015 -8.34896e-015
lhumerus -20.1855 8.70748 87.4632
lradius 12.9577
lwrist -6.19016
lhand -25.9694 -6.45399
lfingers 7.12502
lthumb 0.575284 23.525
rfemur -13.1554 -1.44053 19.9571
rtibia 19.7488
rfoot -10.5681 0.467819
rtoes 17.8594
lfemur -11.3225 7.03392 -17.6181
ltibia 18.456
lfoot -9.62373 3.16173
ltoes -2.79413
569
root 0.836634 17.7287 6.39165 4.73104 -0.16887 -1.94668
lowerback -1.97414 -0.550974 0.0160441
upperback 1.42393 -0.779427 1.82562
thorax 2.5936 -0.406225 1.83331
lowerneck -13.1562 -1.06014 -2.42777
upperneck 18.7431 -1.07279 0.66733
head 7.98518 -0.616845 0.509586
rclavicle 7.45443e-017 -9.34288e-015
rhumerus -24.7602 -20.2317 -80.7156
rradius 21.7147
rwrist 37.3467
rhand -19.9291 -27.1524
rfingers 7.12502
rthumb 6.40822 -57.0354
lclavicle 7.45443e-017 -9.34288e-015
lhumerus -20.1111 8.50225 87.5622
lradius 13.0407
lwrist -5.91373
lhand -25.9073 -6.29065
lfingers 7.12502
lthumb 0.635246 23.6881
rfemur -13.168 -1.43983 19.9411
rtibia 19.7712
rfoot -10.5724 0.490143
rtoes 17.8544
lfemur -11.3138 7.03564 -17.6339
ltibia 18.457
lfoot -9.62055 3.18403
ltoes -2.79261
